<?xml version="1.0" standalone="no"?>
<!DOCTYPE svg PUBLIC "-//W3C//DTD SVG 20010904//EN"
 "http://www.w3.org/TR/2001/REC-SVG-20010904/DTD/svg10.dtd">
<svg version="1.0" xmlns="http://www.w3.org/2000/svg"
 width="85.000000pt" height="77.000000pt" viewBox="0 0 85.000000 77.000000"
 preserveAspectRatio="xMidYMid meet">
<metadata>
Created by potrace 1.10, written by Peter Selinger 2001-2011
</metadata>
<g transform="translate(0.000000,77.000000) scale(0.100000,-0.100000)"
fill="#000000" stroke="none">
<path d="M354 720 c-60 -12 -278 -124 -303 -156 -29 -36 -29 -111 0 -148 11
-14 34 -33 50 -41 28 -15 29 -17 29 -98 0 -101 25 -161 80 -188 52 -27 180
-40 275 -28 153 19 185 54 185 197 l0 91 30 16 30 16 0 -32 c0 -17 -9 -47 -21
-65 -35 -58 -8 -90 71 -82 45 4 59 28 41 70 -8 18 -17 83 -20 145 -5 90 -10
117 -26 140 -28 38 -273 160 -335 166 -25 3 -64 1 -86 -3z m244 -129 c181 -91
180 -113 -10 -207 -105 -51 -140 -64 -178 -64 -38 0 -73 13 -178 64 -184 91
-188 115 -31 196 196 101 217 101 397 11z m-322 -303 c58 -27 81 -32 139 -32
59 0 80 5 133 32 l62 32 0 -61 c0 -33 -5 -69 -11 -81 -25 -46 -163 -69 -287
-48 -94 15 -112 36 -112 126 0 35 2 64 4 64 2 0 35 -14 72 -32z"/>
<path d="M420 15 c0 -10 11 -15 35 -15 24 0 35 5 35 15 0 10 -11 15 -35 15
-24 0 -35 -5 -35 -15z"/>
</g>
</svg>
