<svg width="12" height="14" viewBox="0 0 12 14" fill="none" xmlns="http://www.w3.org/2000/svg">
<g id="Group">
<g id="Group_2">
<g id="Group_3">
<g id="Group_4">
<path id="Vector" d="M9.56505 10.4382H2.4338C1.4239 10.4382 0.559443 9.66526 0.465185 8.6796C0.424789 8.25948 0.519048 7.84744 0.73584 7.48791C1.03746 6.987 1.19095 6.50494 1.19095 6.0552V5.3927C1.19095 4.08253 1.70803 2.85853 2.64657 1.94557C3.58914 1.02858 4.82794 0.546524 6.13543 0.585573C8.71135 0.655593 10.8079 2.84641 10.8079 5.46811V6.0552C10.8079 6.50494 10.9614 6.987 11.263 7.48791C11.4798 7.84744 11.5727 8.25948 11.5337 8.6796C11.4394 9.66526 10.575 10.4382 9.56505 10.4382ZM5.98733 1.66011C5.01513 1.66011 4.10083 2.0331 3.39659 2.71714C2.66812 3.42542 2.26683 4.37607 2.26683 5.39136V6.05385C2.26683 6.70288 2.06216 7.37211 1.65685 8.04269C1.5599 8.20292 1.51817 8.3874 1.53702 8.57591C1.57876 9.01488 1.97329 9.3596 2.4338 9.3596H9.56505C10.0256 9.3596 10.4201 9.01488 10.4619 8.57591C10.4794 8.3874 10.4376 8.20292 10.342 8.04269C9.9367 7.37211 9.73202 6.70288 9.73202 6.05385V5.46676C9.73202 3.42407 8.10541 1.71666 6.10581 1.66146C6.06541 1.66011 6.02638 1.66011 5.98733 1.66011Z" fill="white"/>
</g>
</g>
</g>
<g id="Group_5">
<path id="Vector_2" d="M5.99852 13.417C4.91187 13.417 3.94373 12.7262 3.59093 11.6988C3.49398 11.4174 3.64479 11.1117 3.92487 11.0147C4.2063 10.9178 4.51197 11.0686 4.60892 11.35C4.81225 11.9425 5.36969 12.3411 5.99717 12.3411C6.62466 12.3411 7.18213 11.9425 7.38546 11.35C7.48241 11.0686 7.78808 10.9191 8.06951 11.0147C8.35094 11.1117 8.5004 11.4174 8.4048 11.6988C8.052 12.7262 7.08518 13.417 5.99852 13.417Z" fill="white"/>
</g>
</g>
</svg>
