<svg width="12" height="12" viewBox="0 0 30 18" fill="none" xmlns="http://www.w3.org/2000/svg">
<path d="M8.99994 0.525513C5.40106 0.525513 2.47266 3.45391 2.47266 7.0528C2.47266 9.53267 3.86874 11.7768 6.06236 12.882V14.5368C6.06236 16.1564 7.38037 17.4744 8.99994 17.4744C10.6195 17.4744 11.9375 16.1564 11.9375 14.5368V12.882C14.1311 11.7768 15.5272 9.53114 15.5272 7.0528C15.5257 3.45391 12.5988 0.525513 8.99994 0.525513ZM8.99994 16.2498C8.05544 16.2498 7.28699 15.4813 7.28699 14.5368V14.3868L10.7129 14.3868V14.5368C10.7129 15.4813 9.94444 16.2498 8.99994 16.2498ZM11.0833 11.9284C10.8583 12.0248 10.7114 12.2468 10.7114 12.4917V13.1622L9.61072 13.1622L9.61072 9.04588L11.4492 7.20741C11.688 6.9686 11.688 6.58131 11.4492 6.34098C11.2104 6.10218 10.8231 6.10218 10.5828 6.34098L8.99688 7.92688L7.41098 6.34098C7.17218 6.10218 6.78489 6.10218 6.54455 6.34098C6.30575 6.57978 6.30575 6.96707 6.54455 7.20741L8.38303 9.04588L8.38303 13.1606H7.2824V12.4902C7.2824 12.2452 7.13697 12.0233 6.91041 11.9268C4.95559 11.0895 3.6927 9.176 3.6927 7.04974C3.69729 4.12899 6.07613 1.75014 8.99994 1.75014C11.9237 1.75014 14.3026 4.12899 14.3026 7.0528C14.3011 9.17753 13.0382 11.0925 11.0833 11.9284Z" fill="white"/>
</svg>
