<svg width="14" height="14" viewBox="0 0 14 14" fill="none" xmlns="http://www.w3.org/2000/svg">
<g id="Calendar">
<path id="Vector" d="M10.8443 2.34442H9.85272V1.61243C9.85272 1.31669 9.61318 1.07715 9.31744 1.07715C9.02169 1.07715 8.78216 1.31669 8.78216 1.61243V2.34442H5.20917V1.61243C5.20917 1.31669 4.96963 1.07715 4.67389 1.07715C4.37814 1.07715 4.13861 1.31669 4.13861 1.61243V2.34442H3.15369C1.7352 2.34442 0.583008 3.49795 0.583008 4.9151V10.3522C0.583008 11.7694 1.73653 12.9229 3.15369 12.9229H10.8457C12.2642 12.9229 13.4163 11.7694 13.4163 10.3522V4.9151C13.4163 3.49661 12.2628 2.34442 10.8443 2.34442ZM3.15369 3.41498H4.13861V4.14698C4.13861 4.44272 4.37814 4.68226 4.67389 4.68226C4.96963 4.68226 5.20917 4.44272 5.20917 4.14698V3.41498H8.78216V4.14698C8.78216 4.44272 9.02169 4.68226 9.31744 4.68226C9.61318 4.68226 9.85272 4.44272 9.85272 4.14698V3.41498H10.8443C11.6713 3.41498 12.3444 4.0881 12.3444 4.9151V5.45306H1.65223V4.9151C1.65223 4.0881 2.32534 3.41498 3.15369 3.41498ZM10.8443 11.8537H3.15235C2.32534 11.8537 1.65223 11.1806 1.65223 10.3535V6.52362H12.3458V10.3522C12.3458 11.1806 11.6727 11.8537 10.8443 11.8537Z" fill="#F2F1F3" fill-opacity="0.5"/>
</g>
</svg>
