<svg width="166" height="148" viewBox="0 0 166 148" fill="none" xmlns="http://www.w3.org/2000/svg">
<path fill-rule="evenodd" clip-rule="evenodd" d="M158.881 109.519L149.559 124.965L149.468 125.129C132.677 152.678 87.0653 155.731 47.5774 131.907C7.99858 108.011 -10.5733 66.1423 6.14503 38.4299L15.4673 22.9836L158.881 109.519Z" fill="#FFC402"/>
<mask id="mask0_1_8686" style="mask-type:luminance" maskUnits="userSpaceOnUse" x="0" y="22" width="159" height="126">
<path d="M158.884 109.52L149.562 124.966L149.471 125.13C132.68 152.678 87.0682 155.731 47.5803 131.908C8.00151 108.011 -10.5703 66.143 6.14796 38.4306L15.4702 22.9844L158.884 109.52Z" fill="white"/>
</mask>
<g mask="url(#mask0_1_8686)">
<path fill-rule="evenodd" clip-rule="evenodd" d="M87.7631 224.313L172.572 83.7701L171.137 82.8978L86.3457 223.459L87.7631 224.313Z" fill="#D89C05"/>
<path fill-rule="evenodd" clip-rule="evenodd" d="M84.0381 222.059L168.829 81.5163L167.393 80.644L82.6025 221.205L84.0381 222.059Z" fill="#D89C05"/>
<path fill-rule="evenodd" clip-rule="evenodd" d="M79.2733 219.189L164.064 78.646L162.065 77.4285L77.2744 217.989L79.2733 219.189Z" fill="#D89C05"/>
<path fill-rule="evenodd" clip-rule="evenodd" d="M73.0978 215.462L157.889 74.9015L155.454 73.4296L70.6445 213.991L73.0978 215.462Z" fill="#D89C05"/>
<path fill-rule="evenodd" clip-rule="evenodd" d="M65.0313 210.592L149.822 70.0494L146.951 68.3049L62.1602 208.866L65.0313 210.592Z" fill="#D89C05"/>
<path fill-rule="evenodd" clip-rule="evenodd" d="M56.5389 205.467L141.33 64.9245L138.186 63.0165L53.377 203.577L56.5389 205.467Z" fill="#D89C05"/>
<path fill-rule="evenodd" clip-rule="evenodd" d="M47.7636 200.18L132.555 59.6375L129.12 57.5477L44.3291 198.109L47.7636 200.18Z" fill="#D89C05"/>
<path fill-rule="evenodd" clip-rule="evenodd" d="M38.6979 194.711L123.507 54.1685L119.764 51.9152L34.9727 192.476L38.6979 194.711Z" fill="#D89C05"/>
<path fill-rule="evenodd" clip-rule="evenodd" d="M29.3559 189.077L114.147 48.5163L110.131 46.0994L25.3398 186.66L29.3559 189.077Z" fill="#D89C05"/>
<path fill-rule="evenodd" clip-rule="evenodd" d="M19.7238 183.262L104.515 42.7008L100.208 40.1204L15.417 180.663L19.7238 183.262Z" fill="#D89C05"/>
<path fill-rule="evenodd" clip-rule="evenodd" d="M9.80118 177.283L94.5921 36.7222L90.576 34.3053L5.78516 174.848L9.80118 177.283Z" fill="#D89C05"/>
<path fill-rule="evenodd" clip-rule="evenodd" d="M0.151056 171.468L84.9601 30.9075L81.2167 28.6542L-3.57422 169.215L0.151056 171.468Z" fill="#D89C05"/>
<path fill-rule="evenodd" clip-rule="evenodd" d="M-9.18755 165.817L75.6033 25.2741L72.1688 23.2025L-12.6221 163.745L-9.18755 165.817Z" fill="#D89C05"/>
<path fill-rule="evenodd" clip-rule="evenodd" d="M-18.2527 160.347L66.5382 19.8043L63.3944 17.8962L-21.3965 158.457L-18.2527 160.347Z" fill="#D89C05"/>
<path fill-rule="evenodd" clip-rule="evenodd" d="M-27.0302 155.059L57.7789 14.5161L54.9077 12.7716L-29.9014 153.333L-27.0302 155.059Z" fill="#D89C05"/>
<path fill-rule="evenodd" clip-rule="evenodd" d="M-35.521 149.935L49.2699 9.39186L46.8348 7.91992L-37.9561 148.463L-35.521 149.935Z" fill="#D89C05"/>
<path fill-rule="evenodd" clip-rule="evenodd" d="M-42.1294 145.936L42.6615 5.39368L40.6444 4.17615L-44.1465 144.737L-42.1294 145.936Z" fill="#D89C05"/>
<path fill-rule="evenodd" clip-rule="evenodd" d="M-47.624 142.629L37.1669 2.08649L35.7313 1.21423L-49.0596 141.775L-47.624 142.629Z" fill="#D89C05"/>
<path fill-rule="evenodd" clip-rule="evenodd" d="M-51.2011 140.485L33.5898 -0.0761048L32.1542 -0.948364L-52.6367 139.613L-51.2011 140.485Z" fill="#D89C05"/>
</g>
<path fill-rule="evenodd" clip-rule="evenodd" d="M158.877 109.519C142.158 137.232 96.4556 140.339 56.8768 116.461C17.3162 92.5649 -1.25561 50.6965 15.4627 22.984C32.181 -4.71019 77.8838 -7.81762 117.444 16.0605C157.023 39.9386 175.577 81.8071 158.877 109.519Z" fill="#FFE44E"/>
<path fill-rule="evenodd" clip-rule="evenodd" d="M144.546 100.851C132.135 121.44 96.3539 122.64 64.68 103.523C33.0242 84.4418 17.3962 52.2228 29.8078 31.6338C42.2193 11.0448 78.0001 9.84548 109.674 28.9625C141.33 48.0613 156.958 80.2804 144.546 100.851Z" fill="#EB9F06"/>
<mask id="mask1_1_8686" style="mask-type:luminance" maskUnits="userSpaceOnUse" x="25" y="15" width="124" height="103">
<path d="M144.55 100.851C132.139 121.44 96.3578 122.64 64.6839 103.523C33.0281 84.4418 17.4001 52.2228 29.8117 31.6338C42.2232 11.0448 78.004 9.84548 109.678 28.9625C141.334 48.0613 156.962 80.2804 144.55 100.851Z" fill="white"/>
</mask>
<g mask="url(#mask1_1_8686)">
<path fill-rule="evenodd" clip-rule="evenodd" d="M86.793 252.479C26.1892 352.934 -139.54 364.219 -283.063 277.629C-426.568 191.058 -493.877 39.1936 -433.273 -61.2616C-372.67 -161.717 -206.94 -173.002 -63.4173 -86.4117C80.0876 0.160034 147.415 152.024 86.793 252.479Z" fill="#E59D0C"/>
<path fill-rule="evenodd" clip-rule="evenodd" d="M141.856 103.05C129.372 123.748 93.6272 125.093 62.0986 106.067C30.5701 87.0407 15.0875 54.8035 27.5717 34.1055C40.0559 13.4075 75.8004 12.0627 107.329 31.0889C138.876 50.1151 154.34 82.3705 141.856 103.05Z" fill="#FFD111"/>
</g>
<mask id="mask2_1_8686" style="mask-type:luminance" maskUnits="userSpaceOnUse" x="25" y="17" width="122" height="101">
<mask id="mask3_1_8686" style="mask-type:luminance" maskUnits="userSpaceOnUse" x="23" y="17" width="124" height="103">
<path d="M141.852 103.05C129.368 123.748 93.6233 125.093 62.0947 106.067C30.5662 87.0406 15.0836 54.8033 27.5678 34.1053C40.052 13.4074 75.7965 12.0626 107.325 31.0888C138.872 50.1149 154.336 82.3704 141.852 103.05Z" fill="white"/>
</mask>
<g mask="url(#mask3_1_8686)">
<path d="M144.543 100.852C132.132 121.441 96.351 122.64 64.677 103.523C33.0213 84.4424 17.3933 52.2234 29.8048 31.6344C42.2164 11.0454 77.9972 9.84609 109.671 28.9631C141.327 48.062 156.955 80.281 144.543 100.852Z" fill="white"/>
</g>
</mask>
<g mask="url(#mask2_1_8686)">
<path fill-rule="evenodd" clip-rule="evenodd" d="M86.7901 252.479C26.1862 352.935 -139.543 364.219 -283.066 277.63C-426.571 191.058 -493.88 39.1938 -433.276 -61.2615C-372.673 -161.717 -206.943 -173.002 -63.4202 -86.4116C80.0847 0.160156 147.412 152.024 86.7901 252.479Z" fill="#FFC402"/>
</g>
<path d="M123.221 89.2382C132.438 73.9588 123.211 51.499 102.613 39.0729C82.0136 26.6468 57.8429 28.96 48.6257 44.2395C39.4085 59.5189 48.6353 81.9787 69.2342 94.4048C89.8331 106.831 114.004 104.518 123.221 89.2382Z" fill="#D89C05"/>
<path d="M95.4413 72.4803C101.071 63.1476 95.4361 49.4296 82.855 41.8402C70.2739 34.2508 55.5111 35.664 49.8812 44.9967C44.2514 54.3294 49.8865 68.0474 62.4676 75.6368C75.0486 83.2262 89.8115 81.813 95.4413 72.4803Z" fill="#FFD111"/>
<path d="M62.7151 52.7489C65.4046 48.2968 63.1331 42.2818 57.4634 38.4293C54.3196 39.7922 51.6847 41.991 49.8675 45.0076C48.0503 48.006 47.3416 51.3678 47.596 54.7842C53.6473 58.0188 60.0257 57.2192 62.7151 52.7489Z" fill="#D89C05"/>
</svg>
