<svg width="20" height="20" viewBox="0 0 20 20" fill="none" xmlns="http://www.w3.org/2000/svg">
<g id="Channels/Home">
<path id="Vector" d="M15.5212 19.1667H14.0284C12.693 19.1667 11.607 18.0807 11.607 16.7453V12.6546C11.607 12.2401 11.2712 11.9044 10.8568 11.9044H9.13953C8.72509 11.9044 8.3893 12.2401 8.3893 12.6546V16.7453C8.3893 18.0807 7.30331 19.1667 5.96789 19.1667H4.47513C3.1397 19.1667 2.05371 18.0807 2.05371 16.7453V9.50213C2.05371 7.91536 2.66002 6.41492 3.76136 5.27328L6.68357 2.24171C7.55851 1.33416 8.73659 0.833374 9.99911 0.833374C11.2616 0.833374 12.4378 1.33416 13.3147 2.24171L16.2369 5.27328C17.3382 6.41492 17.9445 7.91727 17.9445 9.50213V16.7453C17.9426 18.0807 16.8566 19.1667 15.5212 19.1667ZM9.13953 10.3694H10.8568C12.1174 10.3694 13.142 11.394 13.142 12.6546V16.7453C13.142 17.2346 13.5391 17.6317 14.0284 17.6317H15.5212C16.0105 17.6317 16.4076 17.2346 16.4076 16.7453V9.50213C16.4076 8.31637 15.9548 7.192 15.1298 6.33817L12.2076 3.3066C11.6243 2.70028 10.8395 2.36835 9.99719 2.36835C9.15679 2.36835 8.37205 2.7022 7.78684 3.3066L4.86462 6.33817C4.04149 7.192 3.58676 8.31637 3.58676 9.50213V16.7453C3.58676 17.2346 3.98394 17.6317 4.47321 17.6317H5.96596C6.45524 17.6317 6.85242 17.2346 6.85242 16.7453V12.6546C6.85626 11.394 7.88085 10.3694 9.13953 10.3694Z" fill="white"/>
</g>
</svg>
