<svg width="20" height="20" viewBox="0 0 20 20" fill="none" xmlns="http://www.w3.org/2000/svg">
<g id="Channels/Play">
<path id="Vector" d="M4.59978 18.3333C4.05446 18.3333 3.55372 18.1894 3.14017 17.9056C2.71648 17.6136 2.17928 17.0339 2.03535 15.929C1.80222 13.9626 1.68464 11.9719 1.68262 10.0015C1.68262 8.03101 1.80019 6.04029 2.03332 4.082C2.17928 2.96501 2.71648 2.38725 3.14017 2.09533C3.74631 1.67773 4.54908 1.56015 5.39646 1.7649C8.54674 2.52307 14.9325 5.99569 17.4016 8.03506C17.9773 8.51146 18.3118 9.22301 18.3159 9.99132V10.0116C18.3118 10.7779 17.9793 11.4915 17.4016 11.9679C14.9325 14.0072 8.54472 17.4798 5.39646 18.238C5.12481 18.3009 4.85723 18.3333 4.59978 18.3333ZM4.59572 3.28733C4.38083 3.28733 4.19635 3.33599 4.0585 3.43127C3.7828 3.62182 3.6794 3.99888 3.64291 4.28269C3.41992 6.16597 3.30439 8.09385 3.30439 9.99943C3.30439 11.907 3.41789 13.8329 3.64291 15.7263C3.6794 16 3.78077 16.3791 4.0585 16.5676C4.2815 16.7217 4.62206 16.7521 5.01737 16.6568C7.84938 15.9756 14.1033 12.5841 16.3698 10.713C16.5704 10.5468 16.6921 10.2812 16.6941 10.0015V9.99335C16.6921 9.71765 16.5704 9.45006 16.3698 9.28382C14.1033 7.41068 7.84938 4.02118 5.01737 3.34004C4.86736 3.30558 4.72749 3.28733 4.59572 3.28733Z" fill="white" fill-opacity="1"/>
</g>
</svg>
